# AST/ASF file generated using VICON BodyLanguage
# -----------------------------------------------
:version 1.10
:name VICON
:units
  mass 1.0
  length 0.45
  angle deg
:documentation
   .ast/.asf automatically generated from VICON data using
   VICON BodyBuilder and BodyLanguage model FoxedUp or BRILLIANT.MOD
:root
   order TX TY TZ RX RY RZ
   axis XYZ
   position 0 0 0  
   orientation 0 0 0 
:bonedata
  begin
     id 1 
     name lhipjoint
     direction 0.682418 -0.694059 0.22932 
     length 2.25561 
     axis 0 0 0  XYZ
  end
  begin
     id 2 
     name lfemur
     direction 0.34202 -0.939693 0  
     length 6.96448  
     axis 0 0 20  XYZ
    dof rx ry rz
    limits (-160.0 20.0)
           (-70.0 70.0)
           (-60.0 70.0)
  end
  begin
     id 3 
     name ltibia
     direction 0.34202 -0.939693 0   
     length 6.88553   
     axis 0 0 20   XYZ
    dof rx
    limits (-10.0 170.0)
  end
  begin
     id 4 
     name lfoot
     direction 0.0723587 -0.198804 0.977364   
     length 1.88518   
     axis -90 7.62852e-016 20   XYZ
    dof rx rz
    limits (-45.0 90.0)
           (-70.0 20.0)
  end
  begin
     id 5 
     name ltoes
     direction 1.53558e-011 -4.21962e-011 1   
     length 0.952124   
     axis -90 7.62852e-016 20   XYZ
    dof rx
    limits (-90.0 20.0)
  end
  begin
     id 6 
     name rhipjoint
     direction -0.657603 -0.71533 0.236348   
     length 2.18854  
     axis 0 0 0  XYZ 
  end
  begin
     id 7 
     name rfemur
     direction -0.34202 -0.939693 0   
     length 6.86686   
     axis 0 0 -20   XYZ
    dof rx ry rz
    limits (-160.0 20.0)
           (-70.0 70.0)
           (-70.0 60.0)
  end
  begin
     id 8 
     name rtibia
     direction -0.34202 -0.939693 0   
     length 6.59503   
     axis 0 0 -20   XYZ
    dof rx
    limits (-10.0 170.0)
 end
 begin
     id 9 
     name rfoot
     direction -0.101977 -0.280179 0.954516   
     length 1.93723  
     axis -90 -7.62852e-016 -20   XYZ
    dof rx rz
    limits (-45.0 90.0)
           (-20.0 70.0)
  end
  begin
     id 10 
     name rtoes
     direction -1.53564e-011 -4.21897e-011 1   
     length 0.970315   
     axis -90 -7.62852e-016 -20   XYZ
    dof rx
    limits (-90.0 20.0)
  end
  begin
     id 11 
     name lowerback
     direction -0.0339559 0.999421 -0.00235966   
     length 1.88543   
     axis 0 0 0   XYZ
    dof rx ry rz
    limits (-20.0 45.0)
           (-30.0 30.0)
           (-30.0 30.0)
  end
  begin
     id 12 
     name upperback
     direction 0.00401003 0.999739 0.0224689   
     length 1.8856   
     axis 0 0 0   XYZ
    dof rx ry rz
    limits (-20.0 45.0)
           (-30.0 30.0)
           (-30.0 30.0)
  end
  begin
     id 13 
     name thorax
     direction 0.0198619 0.999546 0.0226536   
     length 1.88352   
     axis 0 0 0   XYZ
    dof rx ry rz
    limits (-20.0 45.0)
           (-30.0 30.0)
           (-30.0 30.0)
  end
  begin
     id 14 
     name lowerneck
     direction -0.0461848 0.998632 0.0245198   
     length 1.34895   
     axis 0 0 0   XYZ
    dof rx ry rz
    limits (-20.0 45.0)
           (-30.0 30.0)
           (-30.0 30.0)
  end
  begin
     id 15 
     name upperneck
     direction -0.0180627 0.994724 -0.100984   
     length 1.35214   
     axis 0 0 0   XYZ
    dof rx ry rz
    limits (-20.0 45.0)
           (-30.0 30.0)
           (-30.0 30.0)
  end
  begin
     id 16
     name head
     direction -0.00374772 0.999293 -0.037403  
     length 1.3568  
     axis 0 0 0   XYZ
    dof rx ry rz
    limits (-20.0 45.0)
           (-30.0 30.0)
           (-30.0 30.0)
  end
  begin
     id 17 
     name lclavicle
     direction 0.971773 0.191119 0.138311  
     length 2.84954  
     axis 0 0 0   XYZ
    dof ry rz
    limits (-20.0 10.0)
           (0.0 20.0)
  end
  begin
     id 18 
     name lhumerus
     direction 1 -4.4897e-011 -2.43761e-027   
     length 4.40919   
     axis 180 -30 -90   XYZ
    dof rx ry rz
    limits (-60.0 90.0)
           (-90.0 90.0)
           (-90.0 90.0)
  end
  begin
     id 19
     name lradius
     direction 1 -4.4896e-011 -9.1621e-027   
     length 3.03857   
     axis 180 -30 -90   XYZ
    dof rx
    limits (-10.0 170.0)
  end
  begin
     id 20
     name lwrist
     direction 1 -4.4896e-011 -1.41363e-026   
     length 1.51928   
     axis 1.07133e-014 90 90   XYZ
    dof ry
    limits (-180.0 0.0)
 end
  begin
     id 21 
     name lhand
     direction 1 -4.48978e-011 -2.82725e-026   
     length 0.523208   
     axis 1.80403e-014 90 90   XYZ
    dof rx rz
    limits (-90.0 90.0)
           (-45.0 45.0)
  end
  begin
     id 22 
     name lfingers
     direction 1 -4.48977e-011 -5.6545e-026   
     length 0.421824   
     axis 3.60806e-014 90 90   XYZ
    dof rx
    limits (0.0 90.0)
  end
  begin
     id 23
     name lthumb
     direction 0.707107 -6.34962e-011 0.707107   
     length 0.605657   
     axis -90 45 2.85299e-015   XYZ
    dof rx rz
    limits (-45.0 45.0)
           (-45.0 45.0)
  end
  begin
     id 24 
     name rclavicle
     direction -0.957247 0.24311 0.156766   
     length 3.12406  
     axis 0 0 0   XYZ 
    dof ry rz
    limits (-10.0 20.0)
           (-20.0 0.0)
  end
  begin
     id 25 
     name rhumerus
     direction -1 -4.48964e-011 -1.70632e-027  
     length 4.61969   
     axis 180 30 90   XYZ
    dof rx ry rz
    limits (-90.0 60.0)
           (-90.0 90.0)
           (-90.0 90.0)
  end
  begin
     id 26 
     name rradius
     direction -1 -4.48966e-011 -6.60395e-027   
     length 3.09382   
     axis 180 30 90   XYZ
    dof rx
    limits (-10.0 170.0)
  end
  begin
     id 27 
     name rwrist
     direction -1 -4.48963e-011 -1.41363e-026   
     length 1.54691   
     axis 1.07133e-014 -90 -90   XYZ
    dof ry
    limits (-180.0 0.0)
  end
  begin
     id 28
     name rhand
     direction -1 -4.49013e-011 -2.82725e-026   
     length 0.500896   
     axis 1.80403e-014 -90 -90   XYZ
    dof rx rz
    limits (-90.0 90.0)
           (-45.0 45.0)
  end
  begin
     id 29
     name rfingers
     direction -1 -4.48902e-011 -5.6545e-026   
     length 0.403835   
     axis 3.60806e-014 -90 -90   XYZ
    dof rx
    limits (0.0 90.0)
  end
  begin
     id 30
     name rthumb
     direction -0.707107 -6.34953e-011 0.707107   
     length 0.579829   
     axis -90 -45 -2.85299e-015   XYZ
    dof rx rz
    limits (-45.0 45.0)
           (-45.0 45.0)
  end
:hierarchy
  begin
    root lhipjoint rhipjoint lowerback
    lhipjoint lfemur
    lfemur ltibia
    ltibia lfoot
    lfoot ltoes
    rhipjoint rfemur
    rfemur rtibia
    rtibia rfoot
    rfoot rtoes
    lowerback upperback
    upperback thorax
    thorax lowerneck lclavicle rclavicle
    lowerneck upperneck
    upperneck head
    lclavicle lhumerus
    lhumerus lradius
    lradius lwrist
    lwrist lhand lthumb
    lhand lfingers
    rclavicle rhumerus
    rhumerus rradius
    rradius rwrist
    rwrist rhand rthumb
    rhand rfingers
  end

#!OML:ASF E:\madness\Project 1\Capture day 1\Session 1\Female1.ASF
:FULLY-SPECIFIED
:DEGREES
337
root 12.0052 15.9598 1.45503 -534.776 -64.6694 544.469
lowerback -5.12437 0.569803 -2.83343
upperback -3.91581 0.748399 1.17251
thorax -1.21432 0.395619 2.82647
lowerneck 2.17107 0.357577 0.877472
upperneck 4.15008 0.535963 -4.9064
head 0.936804 0.195713 -1.67424
rclavicle -1.68082e-014 7.85199e-015
rhumerus -41.599 3.14067 -51.8087
rradius 63.5499
rwrist 20.2936
rhand -19.8185 -44.0343
rfingers 7.12502
rthumb 6.51502 -73.9141
lclavicle -1.68082e-014 7.85199e-015
lhumerus -50.4709 -5.43225 85.2726
lradius 91.9047
lwrist -23.1993
lhand -32.7939 -22.8837
lfingers 7.12502
lthumb -6.01525 7.01088
rfemur 1.02945 8.51707 11.4516
rtibia 24.8201
rfoot -7.89108 -26.6527
rtoes 1.02311
lfemur -26.1 -6.78795 -5.48579
ltibia 29.1863
lfoot -4.21044 24.4383
ltoes 28.8586
338
root 12.2462 15.9348 1.39332 -532.468 -64.9149 544.123
lowerback -5.7635 -0.00251783 -3.28749
upperback -4.74743 -0.0358794 1.15624
thorax -1.66899 0.0109666 3.03721
lowerneck 2.4425 0.79329 0.734617
upperneck 3.9735 1.1013 -4.64786
head 0.849989 0.484452 -1.56513
rclavicle -5.83464e-014 -1.2921e-014
rhumerus -41.2233 3.42337 -52.5007
rradius 63.872
rwrist 20.4475
rhand -19.622 -44.0162
rfingers 7.12502
rthumb 6.70474 -73.89
lclavicle -5.83464e-014 -1.2921e-014
lhumerus -50.5216 -5.08926 84.7318
lradius 91.8176
lwrist -23.4521
lhand -32.8473 -22.1941
lfingers 7.12502
lthumb -6.06681 7.69906
rfemur -1.32765 8.08665 11.5967
rtibia 24.5756
rfoot -9.00178 -26.6407
rtoes -2.78166
lfemur -28.9669 -6.461 -4.52065
ltibia 28.8769
lfoot -3.08703 23.7335
ltoes 29.1516
339
root 12.3471 15.9127 1.31673 -534.738 -62.5719 544.263
lowerback -4.27235 0.319023 -3.04382
upperback -3.98633 0.399334 1.0822
thorax -1.73929 0.23527 2.83283
lowerneck 2.50972 1.19317 0.702708
upperneck 3.97453 1.6297 -4.51304
head 0.852569 0.749226 -1.51643
rclavicle 4.08068e-014 3.57812e-015
rhumerus -40.8668 3.96765 -53.2659
rradius 64.3446
rwrist 20.4119
rhand -19.384 -44.1667
rfingers 7.12502
rthumb 6.93452 -74.0332
lclavicle 4.08068e-014 3.57812e-015
lhumerus -50.6428 -4.84716 84.261
lradius 91.7952
lwrist -23.223
lhand -33.2001 -21.6346
lfingers 7.12502
lthumb -6.40744 8.24847
rfemur 0.578387 9.45516 11.8541
rtibia 24.1536
rfoot -10.067 -25.3497
rtoes -6.01416
lfemur -25.7998 -6.87121 -4.11213
ltibia 28.527
lfoot -3.36134 25.1141
ltoes 30.2666
340
root 12.505 15.8932 1.23996 -534.364 -61.5503 543.763
lowerback -4.16789 0.267163 -3.30145
upperback -3.9386 0.33525 0.931071
thorax -1.74529 0.207625 2.81965
lowerneck 2.80842 1.55777 0.685494
upperneck 3.69477 2.10226 -4.29688
head 0.725615 0.995341 -1.44619
rclavicle 3.71013e-014 -5.96354e-015
rhumerus -40.7087 4.17896 -53.9186
rradius 64.7113
rwrist 20.3347
rhand -19.5639 -44.3812
rfingers 7.12502
rthumb 6.76079 -74.2533
lclavicle 3.71013e-014 -5.96354e-015
lhumerus -50.7075 -5.02371 83.9152
lradius 91.8637
lwrist -22.9357
lhand -33.3583 -20.9816
lfingers 7.12502
lthumb -6.56013 8.89679
rfemur 0.391368 9.80115 11.8232
rtibia 23.7409
rfoot -11.7984 -24.5338
rtoes -6.15379
lfemur -25.4967 -7.24643 -3.62154
ltibia 28.0971
lfoot -3.1678 25.4078
ltoes 31.9361
341
root 12.662 15.8748 1.16111 -534.316 -60.4861 543.581
lowerback -4.08057 0.27393 -3.39814
upperback -3.8957 0.345146 0.841795
thorax -1.75075 0.213823 2.78172
lowerneck 3.48283 2.00831 -0.109163
upperneck 3.10197 2.6453 -3.2244
head 0.417416 1.2803 -0.982516
rclavicle -1.82012e-014 5.96354e-015
rhumerus -40.6636 4.23016 -54.4084
rradius 65.0225
rwrist 20.5122
rhand -19.7896 -43.9261
rfingers 7.12502
rthumb 6.54292 -73.805
lclavicle -1.82012e-014 5.96354e-015
lhumerus -50.7762 -5.16385 83.5414
lradius 91.9121
lwrist -22.9114
lhand -33.2883 -20.7931
lfingers 7.12502
lthumb -6.49249 9.08735
rfemur 0.492761 10.1928 11.9687
rtibia 22.8112
rfoot -13.0341 -23.748
rtoes -6.66785
lfemur -25.1209 -7.52307 -2.97603
ltibia 27.6954
lfoot -3.76174 25.4654
ltoes 34.7218
342
root 12.8193 15.8541 1.08813 -534.636 -59.6231 543.782
lowerback -3.89359 0.0913143 -3.27882
upperback -3.84755 0.0961351 0.890127
thorax -1.78626 0.0880841 2.75809
lowerneck 2.8953 2.35847 0.0736835
upperneck 3.82792 3.14126 -3.64029
head 0.756994 1.50767 -1.13529
rclavicle -5.37153e-014 -3.37934e-015
rhumerus -40.5555 4.79231 -54.963
rradius 65.574
rwrist 20.6316
rhand -19.9727 -42.9579
rfingers 7.12502
rthumb 6.3662 -72.8422
lclavicle -5.37153e-014 -3.37934e-015
lhumerus -50.84 -4.78225 83.0621
lradius 91.8448
lwrist -22.5541
lhand -33.0691 -21.5034
lfingers 7.12502
lthumb -6.2809 8.38346
rfemur 0.450016 10.5571 12.3715
rtibia 22.3082
rfoot -13.8945 -23.1642
rtoes -8.12322
lfemur -24.7454 -8.03852 -2.10855
ltibia 27.2056
lfoot -4.44098 25.5596
ltoes 35.1587
